<?xml version="1.0" standalone="no"?>
<!DOCTYPE svg PUBLIC "-//W3C//DTD SVG 20010904//EN"
 "http://www.w3.org/TR/2001/REC-SVG-20010904/DTD/svg10.dtd">
<svg version="1.0" xmlns="http://www.w3.org/2000/svg"
 width="512.000000pt" height="512.000000pt" viewBox="0 0 512.000000 512.000000"
 preserveAspectRatio="xMidYMid meet">
<metadata>
Created by potrace 1.14, written by Peter Selinger 2001-2017
</metadata>
<g transform="translate(0.000000,512.000000) scale(0.100000,-0.100000)"
fill="#000000" stroke="none">
<path d="M18 4419 c-6 -4 -8 -11 -5 -15 4 -7 80 -289 92 -344 3 -13 43 -166
121 -460 14 -52 38 -144 54 -205 16 -60 48 -180 70 -265 22 -85 43 -162 45
-171 2 -9 17 -67 34 -130 47 -180 72 -273 76 -289 2 -8 13 -51 24 -95 12 -44
23 -87 26 -96 2 -10 20 -78 40 -153 20 -76 47 -181 61 -234 14 -53 32 -122 40
-152 8 -30 16 -62 18 -70 17 -66 119 -455 130 -495 8 -27 26 -95 40 -150 14
-55 40 -152 57 -215 17 -63 32 -122 34 -130 2 -8 6 -27 10 -42 l7 -28 473 0
473 0 35 142 c19 79 106 424 192 768 86 344 159 632 160 640 42 185 211 827
216 818 4 -7 9 -26 12 -43 3 -16 22 -104 42 -195 20 -91 38 -172 40 -180 2 -8
13 -58 25 -110 11 -52 30 -138 41 -190 11 -52 22 -102 24 -110 4 -18 75 -337
80 -364 30 -142 211 -958 241 -1082 8 -33 14 -68 14 -77 0 -16 34 -17 477 -15
l478 3 16 60 c14 52 131 452 219 755 16 52 58 199 95 325 37 127 94 322 127
435 81 277 108 372 113 390 5 23 130 449 190 655 14 44 72 244 130 445 58 201
126 432 150 515 24 82 42 152 40 155 -2 3 -144 5 -317 5 l-313 0 -52 -205
c-29 -113 -54 -214 -57 -225 -2 -11 -46 -186 -96 -390 -51 -203 -94 -377 -96
-385 -1 -8 -87 -352 -190 -765 l-187 -750 -19 75 c-10 41 -21 89 -24 105 -2
17 -11 57 -19 90 -18 77 -46 203 -51 235 -3 14 -14 61 -24 105 -10 44 -29 125
-40 180 -12 55 -23 107 -25 115 -6 25 -106 474 -111 495 -2 11 -62 285 -134
610 -116 523 -141 637 -156 695 -3 13 -64 15 -476 15 l-472 0 -17 -80 c-10
-44 -21 -95 -23 -112 -3 -18 -10 -52 -15 -75 -6 -24 -12 -54 -15 -68 -3 -14
-7 -36 -10 -50 -6 -26 -23 -109 -30 -145 -3 -11 -14 -65 -25 -121 -26 -121
-23 -110 -55 -264 -28 -138 -93 -451 -156 -750 -22 -107 -42 -204 -44 -215 -2
-11 -32 -153 -66 -315 -34 -162 -63 -304 -66 -315 -2 -11 -8 -44 -14 -74 -9
-51 -19 -76 -21 -55 -1 12 -3 24 -33 144 -14 58 -45 193 -70 300 -25 107 -58
251 -75 320 -16 69 -32 136 -35 150 -7 32 -69 301 -136 585 -68 286 -180 764
-185 790 -20 91 -79 341 -83 345 -5 7 -1032 6 -1044 -1z"/>
</g>
</svg>
